<svg width="40" height="40" viewBox="0 0 40 40" fill="none" xmlns="http://www.w3.org/2000/svg">
<path d="M12.8635 12.8652C13.215 12.5137 13.7848 12.5137 14.1363 12.8652L19.9999 18.7288L25.8635 12.8652C26.2149 12.5137 26.7848 12.5137 27.1363 12.8652C27.4877 13.2166 27.4877 13.7865 27.1363 14.138L21.2727 20.0016L27.1363 25.8652C27.4877 26.2167 27.4877 26.7865 27.1363 27.138C26.7848 27.4894 26.2149 27.4894 25.8635 27.138L19.9999 21.2744L14.1363 27.138C13.7848 27.4894 13.215 27.4894 12.8635 27.138C12.512 26.7865 12.512 26.2167 12.8635 25.8652L18.7271 20.0016L12.8635 14.138C12.512 13.7865 12.512 13.2166 12.8635 12.8652Z" fill="#F7F7F8"/>
</svg>
