<svg width="16" height="16" viewBox="0 0 16 16" fill="none" xmlns="http://www.w3.org/2000/svg">
<path fill-rule="evenodd" clip-rule="evenodd" d="M10.15 1.85C10.95 1.05 12.25 1.05 13.05 1.85L14.15 2.95C14.95 3.75 14.95 5.05 14.15 5.85L5.55 14.45C5.35 14.65 5.1 14.75 4.85 14.75H2.25C1.75 14.75 1.35 14.35 1.35 13.85V11.25C1.35 11 1.45 10.75 1.65 10.55L10.15 1.85ZM11.05 2.95C10.75 2.65 10.45 2.65 10.15 2.95L8.95 4.15L11.85 7.05L13.05 5.85C13.35 5.55 13.35 5.25 13.05 4.95L11.05 2.95ZM10.85 8.05L7.95 5.15L2.75 10.35V13.35H5.55L10.85 8.05Z" fill="#C2C4C8" fill-opacity="0.88"/>
<path d="M3.5 11.5L4.7 12.7" stroke="#C2C4C8" stroke-width="0.8" stroke-opacity="0.6" stroke-linecap="round"/>
</svg>
