<svg width="40" height="40" viewBox="0 0 40 40" fill="none" xmlns="http://www.w3.org/2000/svg">
<path d="M15.9448 11.4083L28.225 17.8007C28.6355 18.0144 28.9973 18.2027 29.2709 18.3785C29.5431 18.5534 29.8726 18.8026 30.0564 19.1967C30.2937 19.7057 30.2937 20.2936 30.0564 20.8026C29.8726 21.1967 29.5431 21.4459 29.2709 21.6208C28.9973 21.7966 28.6355 21.9849 28.225 22.1986L15.9448 28.591C15.4541 28.8465 15.0325 29.066 14.6894 29.2074C14.3621 29.3423 13.9158 29.4929 13.4466 29.388C12.8592 29.2567 12.3687 28.8548 12.1245 28.3046C11.9294 27.8652 11.9893 27.398 12.0572 27.0506C12.1284 26.6863 12.2607 26.2298 12.4147 25.6985L13.8055 20.8996H21.0002C21.4972 20.8996 21.9001 20.4967 21.9001 19.9996C21.9001 19.5026 21.4972 19.0996 21.0002 19.0996H13.8055L12.4148 14.3008C12.2607 13.7695 12.1284 13.313 12.0572 12.9487C11.9893 12.6013 11.9294 12.1341 12.1245 11.6947C12.3687 11.1445 12.8592 10.7426 13.4466 10.6113C13.9158 10.5064 14.3621 10.657 14.6894 10.7919C15.0325 10.9333 15.4541 11.1528 15.9448 11.4083Z" fill="url(#paint0_linear_13740_20824)"/>
<defs>
<linearGradient id="paint0_linear_13740_20824" x1="13.259" y1="10.8242" x2="32.0501" y2="15.8158" gradientUnits="userSpaceOnUse">
<stop offset="0.15625" stop-color="#68CE78"/>
<stop offset="1" stop-color="#14C391"/>
</linearGradient>
</defs>
</svg>
